<?xml version="1.0" encoding="utf-8"?>
<!-- Generator: Adobe Illustrator 19.0.0, SVG Export Plug-In . SVG Version: 6.00 Build 0)  -->
<svg width="132px" height="104px" viewBox="0 0 132 104" version="1.1" xmlns="http://www.w3.org/2000/svg" xmlns:xlink="http://www.w3.org/1999/xlink" preserveAspectRatio="xMidYMid">
<g id="Color_Icon_1_">
	<g id="Green">
		<g>
			<path fill="#66CC66" d="M125.5,68.1l-24.6-23.8c-2.1-2-5.4-2-7.5,0L68.8,68.1c-2.1,2-2.1,5.3,0,7.3l24.6,23.8c2.1,2,5.4,2,7.5,0
				l24.6-23.8C127.5,73.4,127.5,70.1,125.5,68.1z M115.3,74.8l-15,14.5c-1.8,1.7-4.6,1.7-6.4,0L79,74.8c-1.8-1.7-1.8-4.5,0-6.2
				l15-14.5c1.8-1.7,4.6-1.7,6.4,0l15,14.5C117.1,70.3,117.1,73.1,115.3,74.8z"/>
		</g>
	</g>
	<g id="Red">
		<g>
			<path fill="#DC5753" d="M93.3,31.4L68.7,7.5c-2.1-2-5.4-2-7.5,0L36.7,31.4c-2.1,2-2.1,5.3,0,7.3l24.6,23.8c2.1,2,5.4,2,7.5,0
				l24.6-23.8C95.3,36.6,95.3,33.3,93.3,31.4z M83.1,38.1l-15,14.5c-1.8,1.7-4.6,1.7-6.4,0l-15-14.5c-1.8-1.7-1.8-4.5,0-6.2l15-14.5
				c1.8-1.7,4.6-1.7,6.4,0l15,14.5C84.9,33.6,84.9,36.4,83.1,38.1z"/>
		</g>
	</g>
	<g id="Yellow">
		<g>
			<path fill="#FFCC66" d="M61.1,68.1L36.5,44.3c-2.1-2-5.4-2-7.5,0L4.5,68.1c-2.1,2-2.1,5.3,0,7.3l24.6,23.8c2.1,2,5.4,2,7.5,0
				l24.6-23.8C63.2,73.4,63.2,70.1,61.1,68.1z M51,74.8L36,89.3c-1.8,1.7-4.6,1.7-6.4,0l-15-14.5c-1.8-1.7-1.8-4.5,0-6.2l15-14.5
				c1.8-1.7,4.6-1.7,6.4,0l15,14.5C52.7,70.3,52.7,73.1,51,74.8z"/>
		</g>
	</g>
</g>
</svg>
